<svg viewBox="0 0 820 700" xmlns="http://www.w3.org/2000/svg" font-family="Arial, Helvetica, sans-serif">
<rect width="820" height="700" fill="#ffffff"/>
<text x="410" y="28" text-anchor="middle" font-size="15" font-weight="600" fill="#1a1a1a">align-items values (cross axis alignment, single line)</text>
<text x="40" y="102" font-size="13" fill="#1a1a1a" font-family="monospace">stretch (default)</text><rect x="170" y="50" width="560" height="100" fill="none" stroke="#bbb" stroke-width="1.5" rx="6"/><rect x="190" y="58" width="44" height="68" fill="#9FE1CB" stroke="#0F6E56" stroke-width="1.5" rx="4"/><text x="212.0" y="96.0" text-anchor="middle" font-size="11" fill="#04342C">1</text><rect x="254" y="58" width="44" height="68" fill="#9FE1CB" stroke="#0F6E56" stroke-width="1.5" rx="4"/><text x="276.0" y="96.0" text-anchor="middle" font-size="11" fill="#04342C">2</text><rect x="318" y="58" width="44" height="68" fill="#9FE1CB" stroke="#0F6E56" stroke-width="1.5" rx="4"/><text x="340.0" y="96.0" text-anchor="middle" font-size="11" fill="#04342C">3</text><text x="40" y="230" font-size="13" fill="#1a1a1a" font-family="monospace">flex-start</text><rect x="170" y="178" width="560" height="100" fill="none" stroke="#bbb" stroke-width="1.5" rx="6"/><rect x="190" y="186" width="44" height="40" fill="#9FE1CB" stroke="#0F6E56" stroke-width="1.5" rx="4"/><text x="212.0" y="210.0" text-anchor="middle" font-size="11" fill="#04342C">1</text><rect x="254" y="186" width="44" height="60" fill="#9FE1CB" stroke="#0F6E56" stroke-width="1.5" rx="4"/><text x="276.0" y="220.0" text-anchor="middle" font-size="11" fill="#04342C">2</text><rect x="318" y="186" width="44" height="30" fill="#9FE1CB" stroke="#0F6E56" stroke-width="1.5" rx="4"/><text x="340.0" y="205.0" text-anchor="middle" font-size="11" fill="#04342C">3</text><text x="40" y="358" font-size="13" fill="#1a1a1a" font-family="monospace">center</text><rect x="170" y="306" width="560" height="100" fill="none" stroke="#bbb" stroke-width="1.5" rx="6"/><rect x="190" y="336" width="44" height="40" fill="#9FE1CB" stroke="#0F6E56" stroke-width="1.5" rx="4"/><text x="212.0" y="360.0" text-anchor="middle" font-size="11" fill="#04342C">1</text><rect x="254" y="326" width="44" height="60" fill="#9FE1CB" stroke="#0F6E56" stroke-width="1.5" rx="4"/><text x="276.0" y="360.0" text-anchor="middle" font-size="11" fill="#04342C">2</text><rect x="318" y="341" width="44" height="30" fill="#9FE1CB" stroke="#0F6E56" stroke-width="1.5" rx="4"/><text x="340.0" y="360.0" text-anchor="middle" font-size="11" fill="#04342C">3</text><text x="40" y="486" font-size="13" fill="#1a1a1a" font-family="monospace">flex-end</text><rect x="170" y="434" width="560" height="100" fill="none" stroke="#bbb" stroke-width="1.5" rx="6"/><rect x="190" y="486" width="44" height="40" fill="#9FE1CB" stroke="#0F6E56" stroke-width="1.5" rx="4"/><text x="212.0" y="510.0" text-anchor="middle" font-size="11" fill="#04342C">1</text><rect x="254" y="466" width="44" height="60" fill="#9FE1CB" stroke="#0F6E56" stroke-width="1.5" rx="4"/><text x="276.0" y="500.0" text-anchor="middle" font-size="11" fill="#04342C">2</text><rect x="318" y="496" width="44" height="30" fill="#9FE1CB" stroke="#0F6E56" stroke-width="1.5" rx="4"/><text x="340.0" y="515.0" text-anchor="middle" font-size="11" fill="#04342C">3</text><text x="40" y="614" font-size="13" fill="#1a1a1a" font-family="monospace">baseline</text><rect x="170" y="562" width="560" height="100" fill="none" stroke="#bbb" stroke-width="1.5" rx="6"/><rect x="190" y="602" width="44" height="40" fill="#9FE1CB" stroke="#0F6E56" stroke-width="1.5" rx="4"/><text x="212.0" y="626.0" text-anchor="middle" font-size="11" fill="#04342C">1</text><rect x="254" y="582" width="44" height="60" fill="#9FE1CB" stroke="#0F6E56" stroke-width="1.5" rx="4"/><text x="276.0" y="616.0" text-anchor="middle" font-size="11" fill="#04342C">2</text><rect x="318" y="612" width="44" height="30" fill="#9FE1CB" stroke="#0F6E56" stroke-width="1.5" rx="4"/><text x="340.0" y="631.0" text-anchor="middle" font-size="11" fill="#04342C">3</text>
</svg>