<svg viewBox="0 0 820 320" xmlns="http://www.w3.org/2000/svg" font-family="Arial, Helvetica, sans-serif">
<defs>
<marker id="ah-orange" markerWidth="8" markerHeight="8" refX="6" refY="3" orient="auto"><path d="M0,0 L6,3 L0,6 Z" fill="#D85A30"/></marker>
<marker id="ah-green" markerWidth="8" markerHeight="8" refX="6" refY="3" orient="auto"><path d="M0,0 L6,3 L0,6 Z" fill="#0F6E56"/></marker>
</defs>
<rect width="820" height="320" fill="#ffffff"/>

<text x="190" y="26" text-anchor="middle" font-size="15" font-weight="600" fill="#1a1a1a">flex-direction: row</text>
<rect x="40" y="45" width="300" height="140" fill="none" stroke="#999" stroke-width="1.5" rx="8"/>
<rect x="55" y="75" width="60" height="80" fill="#CECBF6" stroke="#534AB7" stroke-width="1.5" rx="4"/><text x="85.0" y="119.0" text-anchor="middle" font-size="12" fill="#26215C">1</text>
<rect x="150" y="75" width="60" height="80" fill="#CECBF6" stroke="#534AB7" stroke-width="1.5" rx="4"/><text x="180.0" y="119.0" text-anchor="middle" font-size="12" fill="#26215C">2</text>
<rect x="245" y="75" width="60" height="80" fill="#CECBF6" stroke="#534AB7" stroke-width="1.5" rx="4"/><text x="275.0" y="119.0" text-anchor="middle" font-size="12" fill="#26215C">3</text>
<line x1="40" y1="205" x2="330" y2="205" stroke="#D85A30" stroke-width="2.5" marker-end="url(#ah-orange)"/>
<text x="185" y="225" text-anchor="middle" font-size="12" fill="#993C1D">main axis — justify-content</text>
<line x1="365" y1="45" x2="365" y2="175" stroke="#0F6E56" stroke-width="2.5" marker-end="url(#ah-green)"/>
<text x="380" y="70" font-size="12" fill="#0F6E56">cross axis</text>
<text x="380" y="86" font-size="12" fill="#0F6E56">align-items</text>

<text x="630" y="26" text-anchor="middle" font-size="15" font-weight="600" fill="#1a1a1a">flex-direction: column</text>
<rect x="500" y="45" width="140" height="240" fill="none" stroke="#999" stroke-width="1.5" rx="8"/>
<rect x="520" y="60" width="100" height="50" fill="#CECBF6" stroke="#534AB7" stroke-width="1.5" rx="4"/><text x="570.0" y="89.0" text-anchor="middle" font-size="12" fill="#26215C">1</text>
<rect x="520" y="140" width="100" height="50" fill="#CECBF6" stroke="#534AB7" stroke-width="1.5" rx="4"/><text x="570.0" y="169.0" text-anchor="middle" font-size="12" fill="#26215C">2</text>
<rect x="520" y="220" width="100" height="50" fill="#CECBF6" stroke="#534AB7" stroke-width="1.5" rx="4"/><text x="570.0" y="249.0" text-anchor="middle" font-size="12" fill="#26215C">3</text>
<line x1="655" y1="60" x2="655" y2="270" stroke="#D85A30" stroke-width="2.5" marker-end="url(#ah-orange)"/>
<text x="700" y="150" font-size="12" fill="#993C1D" transform="rotate(90 700 150)">main axis</text>
<line x1="500" y1="295" x2="640" y2="295" stroke="#0F6E56" stroke-width="2.5" marker-end="url(#ah-green)"/>
<text x="570" y="313" text-anchor="middle" font-size="12" fill="#0F6E56">cross axis — align-items</text>
</svg>