<svg viewBox="0 0 820 622" xmlns="http://www.w3.org/2000/svg" font-family="Arial, Helvetica, sans-serif">
<rect width="820" height="622" fill="#ffffff"/>
<text x="410" y="28" text-anchor="middle" font-size="15" font-weight="600" fill="#1a1a1a">justify-content values (main axis distribution)</text>
<text x="40" y="88" font-size="13" fill="#1a1a1a" font-family="monospace">flex-start (default)</text><rect x="170" y="50" width="560" height="64" fill="none" stroke="#bbb" stroke-width="1.5" rx="6"/><rect x="180" y="60.0" width="44" height="44" fill="#CECBF6" stroke="#534AB7" stroke-width="1.5" rx="4"/><text x="202.0" y="86.0" text-anchor="middle" font-size="11" fill="#26215C">1</text><rect x="232" y="60.0" width="44" height="44" fill="#CECBF6" stroke="#534AB7" stroke-width="1.5" rx="4"/><text x="254.0" y="86.0" text-anchor="middle" font-size="11" fill="#26215C">2</text><rect x="284" y="60.0" width="44" height="44" fill="#CECBF6" stroke="#534AB7" stroke-width="1.5" rx="4"/><text x="306.0" y="86.0" text-anchor="middle" font-size="11" fill="#26215C">3</text><text x="40" y="180" font-size="13" fill="#1a1a1a" font-family="monospace">center</text><rect x="170" y="142" width="560" height="64" fill="none" stroke="#bbb" stroke-width="1.5" rx="6"/><rect x="366" y="152.0" width="44" height="44" fill="#CECBF6" stroke="#534AB7" stroke-width="1.5" rx="4"/><text x="388.0" y="178.0" text-anchor="middle" font-size="11" fill="#26215C">1</text><rect x="418" y="152.0" width="44" height="44" fill="#CECBF6" stroke="#534AB7" stroke-width="1.5" rx="4"/><text x="440.0" y="178.0" text-anchor="middle" font-size="11" fill="#26215C">2</text><rect x="470" y="152.0" width="44" height="44" fill="#CECBF6" stroke="#534AB7" stroke-width="1.5" rx="4"/><text x="492.0" y="178.0" text-anchor="middle" font-size="11" fill="#26215C">3</text><text x="40" y="272" font-size="13" fill="#1a1a1a" font-family="monospace">flex-end</text><rect x="170" y="234" width="560" height="64" fill="none" stroke="#bbb" stroke-width="1.5" rx="6"/><rect x="640" y="244.0" width="44" height="44" fill="#CECBF6" stroke="#534AB7" stroke-width="1.5" rx="4"/><text x="662.0" y="270.0" text-anchor="middle" font-size="11" fill="#26215C">1</text><rect x="692" y="244.0" width="44" height="44" fill="#CECBF6" stroke="#534AB7" stroke-width="1.5" rx="4"/><text x="714.0" y="270.0" text-anchor="middle" font-size="11" fill="#26215C">2</text><rect x="744" y="244.0" width="44" height="44" fill="#CECBF6" stroke="#534AB7" stroke-width="1.5" rx="4"/><text x="766.0" y="270.0" text-anchor="middle" font-size="11" fill="#26215C">3</text><text x="40" y="364" font-size="13" fill="#1a1a1a" font-family="monospace">space-between</text><rect x="170" y="326" width="560" height="64" fill="none" stroke="#bbb" stroke-width="1.5" rx="6"/><rect x="180" y="336.0" width="44" height="44" fill="#CECBF6" stroke="#534AB7" stroke-width="1.5" rx="4"/><text x="202.0" y="362.0" text-anchor="middle" font-size="11" fill="#26215C">1</text><rect x="402" y="336.0" width="44" height="44" fill="#CECBF6" stroke="#534AB7" stroke-width="1.5" rx="4"/><text x="424.0" y="362.0" text-anchor="middle" font-size="11" fill="#26215C">2</text><rect x="686" y="336.0" width="44" height="44" fill="#CECBF6" stroke="#534AB7" stroke-width="1.5" rx="4"/><text x="708.0" y="362.0" text-anchor="middle" font-size="11" fill="#26215C">3</text><text x="40" y="456" font-size="13" fill="#1a1a1a" font-family="monospace">space-around</text><rect x="170" y="418" width="560" height="64" fill="none" stroke="#bbb" stroke-width="1.5" rx="6"/><rect x="204" y="428.0" width="44" height="44" fill="#CECBF6" stroke="#534AB7" stroke-width="1.5" rx="4"/><text x="226.0" y="454.0" text-anchor="middle" font-size="11" fill="#26215C">1</text><rect x="402" y="428.0" width="44" height="44" fill="#CECBF6" stroke="#534AB7" stroke-width="1.5" rx="4"/><text x="424.0" y="454.0" text-anchor="middle" font-size="11" fill="#26215C">2</text><rect x="662" y="428.0" width="44" height="44" fill="#CECBF6" stroke="#534AB7" stroke-width="1.5" rx="4"/><text x="684.0" y="454.0" text-anchor="middle" font-size="11" fill="#26215C">3</text><text x="40" y="548" font-size="13" fill="#1a1a1a" font-family="monospace">space-evenly</text><rect x="170" y="510" width="560" height="64" fill="none" stroke="#bbb" stroke-width="1.5" rx="6"/><rect x="222" y="520.0" width="44" height="44" fill="#CECBF6" stroke="#534AB7" stroke-width="1.5" rx="4"/><text x="244.0" y="546.0" text-anchor="middle" font-size="11" fill="#26215C">1</text><rect x="402" y="520.0" width="44" height="44" fill="#CECBF6" stroke="#534AB7" stroke-width="1.5" rx="4"/><text x="424.0" y="546.0" text-anchor="middle" font-size="11" fill="#26215C">2</text><rect x="644" y="520.0" width="44" height="44" fill="#CECBF6" stroke="#534AB7" stroke-width="1.5" rx="4"/><text x="666.0" y="546.0" text-anchor="middle" font-size="11" fill="#26215C">3</text>
</svg>